<svg xmlns="http://www.w3.org/2000/svg" viewBox="0 0 436.37 188.89"><defs><style>.cls-1{fill:#fffdfd;stroke:#000;stroke-linecap:round;stroke-miterlimit:10;stroke-width:4px;}</style></defs><g id="Ebene_2" data-name="Ebene 2"><g id="Ebene_1-2" data-name="Ebene 1"><path class="cls-1" d="M277.93,148.43l68,37.6,48-3.2-29.6-18.4-29.6-19.2-2.4-24.8,14.4-16.8-5.6-9.6,13.6,23.2h28l29.6,11.2,21.6-8-8-28-30.4-41.6-50.4-12-39.2-20h-32L164.33,2l-28,6.4L12.33,86l-9.6,60,80-57.6,2.4-16.8-8,57.6L53.93,170l26.4,3.2,2.4-36.8,25.6,50.4,37.6-1.6-10.4-18.4h-14.4l-.8-18.4,60.8-24,91.2,3.2Q275.14,138,277.93,148.43Z"/><path class="cls-1" d="M376.33,66l-2.4-11.2-14.4-3.2-4,12"/><line class="cls-1" x1="268.47" y1="85.55" x2="272.33" y2="127.63"/></g></g></svg>