<svg version="1.1" xmlns="http://www.w3.org/2000/svg" xmlns:xlink="http://www.w3.org/1999/xlink" width="436.36684" height="267.67784" viewBox="0,0,436.36684,267.67784"><g transform="translate(-81.81658,-66.37462)"><g data-paper-data="{&quot;isPaintingLayer&quot;:true}" fill-rule="nonzero" stroke-linejoin="miter" stroke-miterlimit="10" stroke-dasharray="" stroke-dashoffset="0" style="mix-blend-mode: normal"><path d="M94.15138,152.4093l124,-77.6l28,-6.4l109.6,16.8h32l39.2,20l50.4,12l30.4,41.6l8,28l-21.6,8l-29.6,-11.2h-28l-13.6,-23.2" fill="none" stroke="#000000" stroke-width="4" stroke-linecap="round"/><path d="M428.55138,170.00931l-14.4,16.8l2.4,24.8l29.6,19.2l29.6,18.4l-48,3.2l-68,-37.6l-16,-54.4" fill="none" stroke="#000000" stroke-width="4" stroke-linecap="round"/><path d="M227.75138,251.60931l-10.4,-18.4h-14.4l-0.8,-18.4l60.8,-24l91.2,3.2" fill="none" stroke="#000000" stroke-width="4" stroke-linecap="round"/><path d="M227.75138,251.60931l-37.6,1.6l-25.6,-50.4l-2.4,36.8l-26.4,-3.2l23.2,-40.8l8,-57.6" fill="none" stroke="#000000" stroke-width="4" stroke-linecap="round"/><path d="M164.55138,154.80931l-80,57.6l9.6,-60" fill="none" stroke="#000000" stroke-width="4" stroke-linecap="round"/><path d="M437.35138,130.00931l4,-12l14.4,3.2l2.4,11.2" fill="none" stroke="#000000" stroke-width="4" stroke-linecap="round"/><text transform="translate(153.35138,313.95446) scale(1.60784,1.60784)" font-size="40" xml:space="preserve" fill="#000000" fill-rule="nonzero" stroke="none" stroke-width="1" stroke-linecap="butt" stroke-linejoin="miter" stroke-miterlimit="10" stroke-dasharray="" stroke-dashoffset="0" font-family="Sans Serif" font-weight="normal" text-anchor="start" style="mix-blend-mode: normal"><tspan x="0" dy="0">SQLverine</tspan></text></g></g></svg>